<svg xmlns="http://www.w3.org/2000/svg" xmlns:xlink="http://www.w3.org/1999/xlink" width="250" zoomAndPan="magnify" viewBox="0 0 375 374.999991" height="250" preserveAspectRatio="xMidYMid meet" version="1.0"><rect x="-37.5" width="450" fill="#ffffff" y="-37.499999" height="449.999989" fill-opacity="1"/><rect x="-37.5" width="450" fill="#fba290" y="-37.499999" height="449.999989" fill-opacity="1"/><path fill="#d7e057" d="M 83.914062 109.820312 C 83.914062 109.820312 88.292969 126.292969 101.0625 127.097656 C 101.0625 127.097656 83.992188 132.921875 83.664062 145.5 C 83.664062 145.5 80.367188 127.847656 66.902344 127.167969 C 66.902344 127.167969 82.59375 124.847656 83.914062 109.820312 Z M 83.914062 109.820312 " fill-opacity="1" fill-rule="nonzero"/><path fill="#3a312a" d="M 83.660156 147.449219 C 82.730469 147.449219 81.917969 146.789062 81.742188 145.859375 C 81.714844 145.699219 78.550781 129.707031 66.804688 129.117188 C 65.800781 129.066406 65 128.265625 64.953125 127.261719 C 64.902344 126.261719 65.625 125.386719 66.617188 125.238281 C 67.191406 125.152344 80.804688 122.925781 81.96875 109.652344 C 82.050781 108.707031 82.800781 107.960938 83.742188 107.878906 C 84.6875 107.804688 85.554688 108.40625 85.800781 109.316406 C 85.839844 109.46875 89.988281 124.445312 101.1875 125.152344 C 102.113281 125.210938 102.871094 125.917969 102.996094 126.835938 C 103.121094 127.757812 102.574219 128.640625 101.695312 128.941406 C 101.535156 128.996094 85.902344 134.492188 85.613281 145.550781 C 85.585938 146.546875 84.8125 147.363281 83.816406 147.441406 C 83.765625 147.449219 83.714844 147.449219 83.660156 147.449219 Z M 73.648438 126.96875 C 78.6875 129.542969 81.730469 134.464844 83.484375 138.539062 C 86.140625 133.320312 91.246094 129.742188 95.167969 127.625 C 89.796875 125.214844 86.367188 120.25 84.359375 116.25 C 82.007812 121.910156 77.46875 125.15625 73.648438 126.96875 Z M 73.648438 126.96875 " fill-opacity="1" fill-rule="nonzero"/><path fill="#d7e057" d="M 55.597656 131.796875 C 55.597656 131.796875 58.695312 143.445312 67.726562 144.015625 C 67.726562 144.015625 55.652344 148.136719 55.417969 157.035156 C 55.417969 157.035156 53.085938 144.546875 43.566406 144.066406 C 43.566406 144.066406 54.664062 142.425781 55.597656 131.796875 Z M 55.597656 131.796875 " fill-opacity="1" fill-rule="nonzero"/><path fill="#3a312a" d="M 55.417969 158.984375 C 54.484375 158.984375 53.671875 158.320312 53.5 157.390625 C 53.476562 157.285156 51.320312 146.410156 43.464844 146.015625 C 42.464844 145.964844 41.664062 145.164062 41.613281 144.160156 C 41.566406 143.160156 42.285156 142.285156 43.277344 142.140625 C 43.664062 142.078125 52.867188 140.554688 53.652344 131.628906 C 53.734375 130.683594 54.484375 129.9375 55.429688 129.855469 C 56.375 129.773438 57.238281 130.378906 57.480469 131.292969 C 57.507812 131.398438 60.347656 141.597656 67.847656 142.074219 C 68.777344 142.132812 69.539062 142.839844 69.660156 143.761719 C 69.785156 144.679688 69.238281 145.5625 68.355469 145.863281 C 68.25 145.898438 57.566406 149.664062 57.371094 157.085938 C 57.34375 158.082031 56.566406 158.898438 55.574219 158.976562 C 55.519531 158.980469 55.46875 158.984375 55.417969 158.984375 Z M 49.582031 143.980469 C 52.320312 145.722656 54.152344 148.40625 55.347656 150.863281 C 57.148438 147.964844 59.9375 145.84375 62.351562 144.421875 C 59.378906 142.761719 57.308594 140.050781 55.941406 137.613281 C 54.40625 140.578125 52 142.632812 49.582031 143.980469 Z M 49.582031 143.980469 " fill-opacity="1" fill-rule="nonzero"/><path fill="#d7e057" d="M 55.714844 97.144531 C 55.714844 97.144531 58.8125 108.796875 67.84375 109.367188 C 67.84375 109.367188 55.769531 113.484375 55.539062 122.382812 C 55.539062 122.382812 53.207031 109.894531 43.683594 109.414062 C 43.683594 109.414062 54.785156 107.773438 55.714844 97.144531 Z M 55.714844 97.144531 " fill-opacity="1" fill-rule="nonzero"/><path fill="#3a312a" d="M 55.539062 124.332031 C 54.605469 124.332031 53.792969 123.667969 53.617188 122.738281 C 53.597656 122.632812 51.4375 111.757812 43.585938 111.363281 C 42.582031 111.3125 41.78125 110.511719 41.734375 109.507812 C 41.683594 108.507812 42.40625 107.632812 43.398438 107.484375 C 43.785156 107.425781 52.988281 105.902344 53.769531 96.976562 C 53.851562 96.03125 54.601562 95.285156 55.546875 95.203125 C 56.5 95.132812 57.359375 95.730469 57.601562 96.640625 C 57.648438 96.816406 60.492188 106.945312 67.96875 107.421875 C 68.898438 107.476562 69.65625 108.1875 69.78125 109.105469 C 69.902344 110.027344 69.355469 110.910156 68.476562 111.210938 C 68.371094 111.246094 57.683594 115.011719 57.488281 122.433594 C 57.460938 123.429688 56.6875 124.246094 55.691406 124.324219 C 55.640625 124.332031 55.589844 124.332031 55.539062 124.332031 Z M 49.699219 109.328125 C 52.4375 111.070312 54.269531 113.753906 55.464844 116.210938 C 57.265625 113.3125 60.054688 111.191406 62.46875 109.769531 C 59.496094 108.109375 57.429688 105.398438 56.0625 102.957031 C 54.523438 105.925781 52.121094 107.984375 49.699219 109.328125 Z M 49.699219 109.328125 " fill-opacity="1" fill-rule="nonzero"/><path fill="#87796f" d="M 118.890625 168.089844 C 120.542969 183.296875 119.449219 195.882812 116.453125 196.207031 C 113.453125 196.535156 109.683594 184.472656 108.035156 169.269531 C 106.382812 154.0625 107.476562 141.476562 110.472656 141.152344 C 113.472656 140.824219 117.242188 152.886719 118.890625 168.089844 Z M 118.890625 168.089844 " fill-opacity="1" fill-rule="nonzero"/><path fill="#3a312a" d="M 116.34375 198.164062 C 109.558594 198.164062 106.621094 174.324219 106.09375 169.476562 C 105.558594 164.558594 103.25 139.972656 110.261719 139.210938 C 112.914062 138.929688 115.015625 141.699219 117.050781 148.214844 C 118.679688 153.421875 120.023438 160.40625 120.832031 167.878906 C 121.367188 172.800781 123.675781 197.382812 116.664062 198.144531 C 116.554688 198.15625 116.449219 198.164062 116.34375 198.164062 Z M 110.71875 143.417969 C 109.585938 145.65625 108.386719 154.453125 109.972656 169.058594 C 111.558594 183.660156 114.617188 191.996094 116.203125 193.941406 C 117.339844 191.703125 118.535156 182.902344 116.949219 168.300781 C 115.367188 153.699219 112.308594 145.363281 110.71875 143.417969 Z M 110.71875 143.417969 " fill-opacity="1" fill-rule="nonzero"/><path fill="#87796f" d="M 68.019531 205.441406 C 73.75 219.621094 76.132812 232.03125 73.335938 233.160156 C 70.539062 234.285156 63.625 223.707031 57.894531 209.523438 C 52.160156 195.34375 49.78125 182.933594 52.578125 181.808594 C 55.375 180.679688 62.285156 191.261719 68.019531 205.441406 Z M 68.019531 205.441406 " fill-opacity="1" fill-rule="nonzero"/><path fill="#3a312a" d="M 72.855469 235.207031 C 70.679688 235.207031 68.21875 232.957031 65.078125 228.148438 C 62.09375 223.582031 58.898438 217.226562 56.078125 210.253906 C 54.226562 205.664062 45.300781 182.636719 51.84375 179.996094 C 58.375 177.363281 67.972656 200.121094 69.828125 204.710938 C 72.648438 211.679688 74.765625 218.46875 75.792969 223.824219 C 77.078125 230.53125 76.542969 233.964844 74.066406 234.964844 C 73.671875 235.125 73.269531 235.207031 72.855469 235.207031 Z M 53.429688 183.921875 C 52.949219 186.386719 54.195312 195.175781 59.703125 208.796875 C 65.207031 222.414062 70.421875 229.605469 72.480469 231.042969 C 72.960938 228.582031 71.714844 219.792969 66.207031 206.171875 C 60.703125 192.550781 55.488281 185.359375 53.429688 183.921875 Z M 53.429688 183.921875 " fill-opacity="1" fill-rule="nonzero"/><path fill="#87796f" d="M 181.027344 141.136719 C 181.203125 141.15625 181.375 141.222656 181.542969 141.328125 C 181.710938 141.4375 181.871094 141.585938 182.027344 141.78125 C 182.183594 141.976562 182.332031 142.214844 182.472656 142.496094 C 182.613281 142.773438 182.75 143.097656 182.875 143.460938 C 183.003906 143.820312 183.121094 144.222656 183.230469 144.667969 C 183.34375 145.109375 183.445312 145.585938 183.539062 146.105469 C 183.632812 146.621094 183.714844 147.171875 183.792969 147.761719 C 183.867188 148.347656 183.933594 148.964844 183.988281 149.617188 C 184.046875 150.269531 184.09375 150.949219 184.128906 151.65625 C 184.167969 152.367188 184.195312 153.101562 184.210938 153.863281 C 184.230469 154.621094 184.238281 155.40625 184.234375 156.210938 C 184.230469 157.011719 184.21875 157.835938 184.195312 158.675781 C 184.175781 159.515625 184.140625 160.371094 184.101562 161.238281 C 184.058594 162.105469 184.007812 162.984375 183.945312 163.875 C 183.882812 164.761719 183.8125 165.65625 183.734375 166.554688 C 183.652344 167.453125 183.5625 168.355469 183.464844 169.253906 C 183.367188 170.15625 183.261719 171.054688 183.148438 171.949219 C 183.03125 172.847656 182.910156 173.734375 182.777344 174.613281 C 182.648438 175.496094 182.511719 176.363281 182.363281 177.222656 C 182.21875 178.078125 182.066406 178.921875 181.910156 179.746094 C 181.75 180.570312 181.585938 181.378906 181.417969 182.164062 C 181.246094 182.949219 181.070312 183.710938 180.890625 184.449219 C 180.710938 185.191406 180.527344 185.902344 180.339844 186.585938 C 180.148438 187.269531 179.957031 187.925781 179.761719 188.550781 C 179.566406 189.171875 179.371094 189.765625 179.171875 190.320312 C 178.972656 190.878906 178.769531 191.398438 178.570312 191.882812 C 178.367188 192.367188 178.164062 192.816406 177.960938 193.222656 C 177.757812 193.632812 177.554688 194 177.355469 194.328125 C 177.152344 194.652344 176.953125 194.9375 176.753906 195.183594 C 176.554688 195.425781 176.359375 195.625 176.164062 195.78125 C 175.972656 195.941406 175.78125 196.050781 175.59375 196.121094 C 175.410156 196.191406 175.226562 196.214844 175.046875 196.195312 C 174.871094 196.175781 174.699219 196.113281 174.53125 196.007812 C 174.363281 195.898438 174.203125 195.746094 174.046875 195.554688 C 173.890625 195.359375 173.742188 195.121094 173.601562 194.839844 C 173.460938 194.5625 173.324219 194.238281 173.199219 193.875 C 173.070312 193.511719 172.953125 193.109375 172.84375 192.667969 C 172.730469 192.226562 172.628906 191.746094 172.535156 191.230469 C 172.441406 190.714844 172.359375 190.160156 172.28125 189.574219 C 172.207031 188.988281 172.140625 188.367188 172.085938 187.71875 C 172.027344 187.066406 171.980469 186.386719 171.945312 185.675781 C 171.90625 184.96875 171.878906 184.234375 171.863281 183.472656 C 171.84375 182.710938 171.835938 181.929688 171.839844 181.125 C 171.84375 180.320312 171.855469 179.5 171.878906 178.660156 C 171.898438 177.820312 171.933594 176.964844 171.972656 176.097656 C 172.015625 175.226562 172.066406 174.351562 172.128906 173.460938 C 172.191406 172.574219 172.261719 171.679688 172.339844 170.78125 C 172.421875 169.882812 172.511719 168.980469 172.609375 168.078125 C 172.707031 167.179688 172.8125 166.28125 172.925781 165.382812 C 173.042969 164.488281 173.164062 163.601562 173.296875 162.71875 C 173.425781 161.839844 173.5625 160.972656 173.710938 160.113281 C 173.855469 159.257812 174.007812 158.414062 174.164062 157.589844 C 174.324219 156.765625 174.488281 155.957031 174.65625 155.171875 C 174.828125 154.386719 175.003906 153.625 175.183594 152.882812 C 175.363281 152.144531 175.546875 151.433594 175.734375 150.75 C 175.925781 150.0625 176.117188 149.410156 176.3125 148.785156 C 176.507812 148.160156 176.703125 147.570312 176.902344 147.015625 C 177.101562 146.457031 177.304688 145.9375 177.503906 145.453125 C 177.707031 144.964844 177.910156 144.519531 178.113281 144.113281 C 178.316406 143.703125 178.519531 143.335938 178.71875 143.007812 C 178.921875 142.683594 179.121094 142.398438 179.320312 142.152344 C 179.519531 141.910156 179.714844 141.710938 179.910156 141.554688 C 180.101562 141.394531 180.292969 141.28125 180.480469 141.214844 C 180.664062 141.144531 180.847656 141.121094 181.027344 141.136719 Z M 181.027344 141.136719 " fill-opacity="1" fill-rule="nonzero"/><path fill="#3a312a" d="M 175.160156 198.164062 C 175.054688 198.164062 174.949219 198.15625 174.84375 198.144531 C 167.828125 197.386719 170.140625 172.800781 170.671875 167.882812 C 171.484375 160.40625 172.828125 153.421875 174.453125 148.21875 C 176.488281 141.703125 178.582031 138.9375 181.242188 139.214844 C 188.257812 139.972656 185.945312 164.558594 185.414062 169.476562 C 184.886719 174.324219 181.949219 198.160156 175.160156 198.164062 Z M 175.617188 194.398438 L 175.632812 194.398438 Z M 180.785156 143.417969 C 179.199219 145.363281 176.140625 153.699219 174.554688 168.300781 C 172.96875 182.902344 174.164062 191.699219 175.300781 193.941406 C 176.886719 191.996094 179.945312 183.660156 181.53125 169.058594 C 183.117188 154.453125 181.917969 145.65625 180.785156 143.417969 Z M 172.613281 168.089844 L 172.628906 168.089844 Z M 172.613281 168.089844 " fill-opacity="1" fill-rule="nonzero"/><path fill="#87796f" d="M 223.488281 205.441406 C 217.753906 219.621094 215.375 232.03125 218.171875 233.160156 C 220.96875 234.285156 227.882812 223.707031 233.613281 209.523438 C 239.34375 195.34375 241.726562 182.933594 238.929688 181.808594 C 236.132812 180.679688 229.21875 191.261719 223.488281 205.441406 Z M 223.488281 205.441406 " fill-opacity="1" fill-rule="nonzero"/><path fill="#3a312a" d="M 218.648438 235.207031 C 218.238281 235.207031 217.835938 235.125 217.441406 234.96875 C 214.960938 233.96875 214.425781 230.53125 215.710938 223.828125 C 216.738281 218.472656 218.859375 211.683594 221.675781 204.710938 C 223.53125 200.125 233.101562 177.359375 239.660156 180 C 246.203125 182.636719 237.277344 205.667969 235.425781 210.257812 C 232.605469 217.230469 229.410156 223.585938 226.425781 228.152344 C 223.285156 232.957031 220.828125 235.207031 218.648438 235.207031 Z M 219.207031 231.574219 L 219.21875 231.574219 Z M 225.296875 206.171875 C 219.792969 219.792969 218.542969 228.582031 219.027344 231.042969 C 221.085938 229.605469 226.296875 222.414062 231.804688 208.796875 C 237.308594 195.175781 238.554688 186.386719 238.074219 183.921875 C 236.015625 185.363281 230.800781 192.550781 225.296875 206.171875 Z M 225.296875 206.171875 " fill-opacity="1" fill-rule="nonzero"/><path fill="#fae6ca" d="M 244.710938 226.808594 C 240.796875 216.285156 232.773438 208.425781 222.707031 205.25 C 217.984375 203.757812 213.042969 203.382812 208.167969 204.046875 C 207.519531 197.109375 205.335938 190.488281 201.746094 184.824219 C 195.738281 175.335938 186.265625 169.300781 175.753906 168.269531 C 165.253906 167.238281 154.777344 171.3125 147.03125 179.453125 C 146.488281 180.027344 145.960938 180.625 145.449219 181.234375 C 144.933594 180.625 144.410156 180.027344 143.863281 179.453125 C 136.117188 171.3125 125.644531 167.238281 115.140625 168.269531 C 104.632812 169.300781 95.160156 175.335938 89.148438 184.824219 C 85.554688 190.496094 83.371094 197.125 82.722656 204.070312 C 77.921875 203.390625 72.992188 203.734375 68.191406 205.25 C 58.121094 208.429688 50.097656 216.289062 46.183594 226.8125 C 42.84375 235.792969 42.695312 246.085938 45.769531 255.804688 C 48.84375 265.519531 54.886719 273.863281 62.789062 279.292969 C 67.4375 282.484375 72.542969 284.53125 77.75 285.378906 C 77.578125 287.867188 77.597656 290.386719 77.835938 292.917969 C 79.90625 314.996094 98.164062 333.003906 120.300781 334.8125 C 121.566406 334.914062 122.832031 334.964844 124.097656 334.964844 C 130.222656 334.964844 136.324219 333.765625 141.9375 331.441406 C 144.179688 330.511719 146.554688 330.511719 148.796875 331.441406 C 155.578125 334.246094 163.054688 335.414062 170.4375 334.8125 C 192.574219 333.003906 210.828125 314.996094 212.902344 292.929688 C 213.136719 290.402344 213.160156 287.890625 212.988281 285.410156 C 218.25 284.574219 223.414062 282.515625 228.105469 279.289062 C 236.007812 273.859375 242.050781 265.519531 245.125 255.800781 C 248.199219 246.085938 248.050781 235.789062 244.710938 226.808594 Z M 244.710938 226.808594 " fill-opacity="1" fill-rule="nonzero"/><path fill="#3a312a" d="M 166.640625 336.914062 C 160.261719 336.914062 153.90625 335.667969 148.050781 333.242188 C 146.296875 332.515625 144.441406 332.515625 142.6875 333.242188 C 135.679688 336.144531 127.71875 337.371094 120.140625 336.757812 C 97.070312 334.871094 78.046875 316.105469 75.890625 293.101562 C 75.699219 291.09375 75.644531 289.039062 75.710938 286.980469 C 70.75 285.933594 66.035156 283.890625 61.679688 280.898438 C 53.421875 275.222656 47.109375 266.515625 43.90625 256.390625 C 40.703125 246.261719 40.863281 235.515625 44.351562 226.132812 C 48.480469 215.039062 56.953125 206.75 67.601562 203.390625 C 71.945312 202.019531 76.445312 201.523438 81.003906 201.914062 C 81.890625 195.347656 84.121094 189.117188 87.496094 183.78125 C 93.828125 173.78125 103.835938 167.421875 114.949219 166.332031 C 126.0625 165.238281 137.113281 169.53125 145.277344 178.109375 C 145.332031 178.171875 145.390625 178.230469 145.445312 178.289062 C 145.5 178.230469 145.558594 178.171875 145.613281 178.109375 C 153.777344 169.53125 164.828125 165.234375 175.941406 166.332031 C 187.054688 167.421875 197.0625 173.78125 203.394531 183.78125 C 206.769531 189.113281 208.996094 195.339844 209.886719 201.898438 C 214.46875 201.523438 218.964844 202.023438 223.292969 203.390625 C 233.9375 206.75 242.410156 215.039062 246.539062 226.132812 C 250.03125 235.519531 250.191406 246.261719 246.984375 256.390625 C 243.78125 266.519531 237.46875 275.222656 229.210938 280.898438 C 224.804688 283.929688 220.039062 285.984375 215.023438 287.019531 C 215.09375 289.070312 215.03125 291.113281 214.84375 293.113281 C 212.683594 316.109375 193.660156 334.875 170.59375 336.757812 C 169.28125 336.863281 167.960938 336.914062 166.640625 336.914062 Z M 145.367188 328.792969 C 146.773438 328.792969 148.179688 329.074219 149.546875 329.640625 C 156.039062 332.328125 163.207031 333.445312 170.28125 332.867188 C 191.484375 331.136719 208.972656 313.886719 210.957031 292.746094 C 211.179688 290.390625 211.207031 287.96875 211.042969 285.542969 C 210.972656 284.535156 211.6875 283.640625 212.683594 283.484375 C 217.753906 282.679688 222.570312 280.730469 227 277.683594 C 234.542969 272.5 240.320312 264.519531 243.265625 255.214844 C 246.207031 245.910156 246.074219 236.066406 242.882812 227.488281 C 239.175781 217.53125 231.609375 210.105469 222.117188 207.109375 C 217.726562 205.722656 213.121094 205.339844 208.433594 205.976562 C 207.90625 206.050781 207.371094 205.902344 206.957031 205.574219 C 206.539062 205.242188 206.273438 204.757812 206.226562 204.226562 C 205.601562 197.558594 203.480469 191.210938 200.097656 185.867188 C 194.410156 176.890625 185.46875 171.183594 175.5625 170.210938 C 165.660156 169.238281 155.773438 173.097656 148.449219 180.796875 C 147.925781 181.34375 147.429688 181.914062 146.941406 182.492188 C 146.199219 183.371094 144.695312 183.371094 143.957031 182.492188 C 143.464844 181.914062 142.96875 181.34375 142.445312 180.796875 C 135.121094 173.097656 125.242188 169.246094 115.332031 170.210938 C 105.425781 171.183594 96.480469 176.890625 90.796875 185.867188 C 87.410156 191.214844 85.289062 197.574219 84.667969 204.25 C 84.617188 204.78125 84.351562 205.269531 83.933594 205.601562 C 83.515625 205.929688 82.976562 206.074219 82.449219 206 C 77.792969 205.34375 73.191406 205.714844 68.777344 207.109375 C 59.285156 210.105469 51.714844 217.535156 48.011719 227.492188 C 44.820312 236.066406 44.683594 245.910156 47.628906 255.214844 C 50.574219 264.519531 56.351562 272.5 63.894531 277.6875 C 68.273438 280.695312 73.039062 282.636719 78.0625 283.453125 C 79.058594 283.617188 79.765625 284.507812 79.695312 285.515625 C 79.527344 287.941406 79.554688 290.371094 79.777344 292.738281 C 81.761719 313.886719 99.25 331.136719 120.457031 332.871094 C 127.421875 333.4375 134.75 332.308594 141.191406 329.640625 C 142.558594 329.074219 143.964844 328.792969 145.367188 328.792969 Z M 145.367188 328.792969 " fill-opacity="1" fill-rule="nonzero"/><path fill="#87796f" d="M 136.320312 207.84375 C 137.515625 219.964844 130.816406 230.546875 121.359375 231.472656 C 111.902344 232.402344 103.269531 223.328125 102.078125 211.207031 C 100.882812 199.085938 107.582031 188.507812 117.039062 187.578125 C 126.496094 186.648438 135.128906 195.722656 136.320312 207.84375 Z M 136.320312 207.84375 " fill-opacity="1" fill-rule="nonzero"/><path fill="#3a312a" d="M 120.007812 233.488281 C 115.363281 233.488281 110.867188 231.425781 107.203125 227.578125 C 103.265625 223.433594 100.753906 217.6875 100.136719 211.394531 C 99.515625 205.105469 100.859375 198.980469 103.917969 194.152344 C 107.070312 189.167969 111.664062 186.144531 116.851562 185.636719 C 122.03125 185.128906 127.128906 187.199219 131.195312 191.472656 C 135.136719 195.617188 137.648438 201.359375 138.265625 207.652344 C 138.882812 213.945312 137.542969 220.070312 134.484375 224.898438 C 131.328125 229.878906 126.734375 232.902344 121.550781 233.410156 C 121.035156 233.464844 120.519531 233.488281 120.007812 233.488281 Z M 118.375 189.464844 C 117.992188 189.464844 117.613281 189.480469 117.230469 189.519531 C 113.269531 189.90625 109.714844 192.292969 107.214844 196.238281 C 104.621094 200.335938 103.484375 205.582031 104.019531 211.015625 C 104.554688 216.445312 106.691406 221.375 110.035156 224.890625 C 113.25 228.273438 117.210938 229.921875 121.167969 229.53125 C 125.128906 229.140625 128.6875 226.757812 131.183594 222.8125 C 133.78125 218.714844 134.914062 213.46875 134.378906 208.035156 C 133.84375 202.601562 131.710938 197.671875 128.367188 194.160156 C 125.457031 191.105469 121.945312 189.464844 118.375 189.464844 Z M 118.375 189.464844 " fill-opacity="1" fill-rule="nonzero"/><path fill="#87796f" d="M 97.101562 239.597656 C 100.777344 251.210938 96.410156 262.945312 87.347656 265.804688 C 78.289062 268.664062 67.964844 261.570312 64.289062 249.957031 C 60.617188 238.34375 64.980469 226.609375 74.042969 223.75 C 83.105469 220.890625 93.425781 227.984375 97.101562 239.597656 Z M 97.101562 239.597656 " fill-opacity="1" fill-rule="nonzero"/><path fill="#3a312a" d="M 83.257812 268.382812 C 74.542969 268.382812 65.8125 261.234375 62.429688 250.542969 C 60.523438 244.515625 60.570312 238.246094 62.5625 232.890625 C 64.617188 227.363281 68.484375 223.457031 73.453125 221.890625 C 78.425781 220.320312 83.839844 221.300781 88.699219 224.640625 C 93.410156 227.878906 97.054688 232.980469 98.960938 239.011719 C 100.871094 245.039062 100.824219 251.308594 98.832031 256.664062 C 96.773438 262.1875 92.90625 266.09375 87.9375 267.664062 C 86.398438 268.148438 84.828125 268.382812 83.257812 268.382812 Z M 78.183594 225.066406 C 76.972656 225.066406 75.78125 225.246094 74.628906 225.609375 C 70.832031 226.804688 67.847656 229.875 66.21875 234.25 C 64.527344 238.792969 64.503906 244.164062 66.152344 249.367188 C 69.496094 259.9375 78.742188 266.472656 86.761719 263.945312 C 90.554688 262.746094 93.542969 259.675781 95.171875 255.304688 C 96.859375 250.761719 96.886719 245.390625 95.238281 240.1875 C 93.589844 234.980469 90.484375 230.601562 86.484375 227.851562 C 83.804688 226.011719 80.949219 225.066406 78.183594 225.066406 Z M 78.183594 225.066406 " fill-opacity="1" fill-rule="nonzero"/><path fill="#87796f" d="M 154.570312 207.84375 C 153.378906 219.964844 160.078125 230.546875 169.535156 231.472656 C 178.992188 232.402344 187.625 223.328125 188.816406 211.207031 C 190.007812 199.085938 183.308594 188.507812 173.851562 187.578125 C 164.394531 186.648438 155.765625 195.722656 154.570312 207.84375 Z M 154.570312 207.84375 " fill-opacity="1" fill-rule="nonzero"/><path fill="#3a312a" d="M 170.882812 233.488281 C 170.371094 233.488281 169.859375 233.464844 169.34375 233.414062 C 158.828125 232.378906 151.332031 220.824219 152.628906 207.652344 C 153.921875 194.480469 163.523438 184.605469 174.042969 185.636719 C 179.230469 186.144531 183.824219 189.167969 186.980469 194.152344 C 190.035156 198.980469 191.378906 205.101562 190.757812 211.394531 C 190.140625 217.6875 187.628906 223.433594 183.691406 227.578125 C 180.027344 231.425781 175.53125 233.488281 170.882812 233.488281 Z M 156.515625 208.035156 C 155.429688 219.066406 161.355469 228.710938 169.726562 229.53125 C 173.6875 229.921875 177.640625 228.273438 180.859375 224.890625 C 184.203125 221.375 186.339844 216.445312 186.875 211.015625 C 187.410156 205.582031 186.277344 200.335938 183.679688 196.238281 C 181.183594 192.292969 177.625 189.90625 173.664062 189.519531 C 165.285156 188.703125 157.601562 197.003906 156.515625 208.035156 Z M 156.515625 208.035156 " fill-opacity="1" fill-rule="nonzero"/><path fill="#87796f" d="M 193.792969 239.597656 C 190.117188 251.210938 194.484375 262.945312 203.542969 265.804688 C 212.605469 268.664062 222.929688 261.570312 226.601562 249.957031 C 230.277344 238.34375 225.910156 226.609375 216.851562 223.75 C 207.789062 220.890625 197.46875 227.984375 193.792969 239.597656 Z M 193.792969 239.597656 " fill-opacity="1" fill-rule="nonzero"/><path fill="#3a312a" d="M 207.699219 268.394531 C 206.09375 268.394531 204.503906 268.152344 202.953125 267.664062 C 192.882812 264.484375 187.9375 251.628906 191.929688 239.011719 C 193.835938 232.984375 197.484375 227.878906 202.195312 224.640625 C 207.054688 221.300781 212.46875 220.324219 217.4375 221.890625 C 222.40625 223.460938 226.277344 227.367188 228.332031 232.890625 C 230.324219 238.246094 230.371094 244.515625 228.464844 250.542969 C 226.558594 256.574219 222.910156 261.675781 218.199219 264.914062 C 214.851562 267.214844 211.242188 268.394531 207.699219 268.394531 Z M 195.652344 240.1875 C 192.308594 250.757812 196.113281 261.414062 204.132812 263.945312 C 207.925781 265.140625 212.136719 264.347656 215.984375 261.699219 C 219.984375 258.953125 223.09375 254.574219 224.742188 249.367188 C 226.390625 244.164062 226.363281 238.792969 224.671875 234.25 C 223.046875 229.875 220.058594 226.804688 216.261719 225.609375 C 212.46875 224.410156 208.257812 225.207031 204.410156 227.851562 C 200.410156 230.601562 197.300781 234.980469 195.652344 240.1875 Z M 195.652344 240.1875 " fill-opacity="1" fill-rule="nonzero"/><path fill="#87796f" d="M 179.992188 264.972656 C 175.53125 262.429688 171.664062 258.933594 169.21875 254.425781 C 164.632812 245.972656 155.675781 240.230469 145.375 240.230469 C 135.082031 240.230469 126.128906 245.96875 121.539062 254.414062 C 119.089844 258.925781 115.222656 262.425781 110.753906 264.964844 C 101.871094 270.023438 96.125 279.949219 97.175781 291.109375 C 98.382812 303.992188 108.96875 314.417969 121.878906 315.472656 C 126.375 315.839844 130.660156 315.109375 134.496094 313.519531 C 141.496094 310.617188 149.238281 310.617188 156.238281 313.519531 C 160.074219 315.109375 164.359375 315.839844 168.855469 315.472656 C 181.761719 314.417969 192.347656 303.996094 193.558594 291.117188 C 194.609375 279.957031 188.871094 270.03125 179.992188 264.972656 Z M 179.992188 264.972656 " fill-opacity="1" fill-rule="nonzero"/><path fill="#3a312a" d="M 124.1875 317.515625 C 123.371094 317.515625 122.550781 317.484375 121.722656 317.417969 C 107.910156 316.289062 96.523438 305.058594 95.230469 291.289062 C 94.164062 279.910156 99.878906 268.914062 109.789062 263.273438 C 114.324219 260.691406 117.699219 257.398438 119.824219 253.484375 C 124.917969 244.105469 134.707031 238.28125 145.375 238.28125 C 156.050781 238.28125 165.84375 244.113281 170.933594 253.496094 C 173.054688 257.40625 176.425781 260.699219 180.960938 263.277344 C 190.863281 268.921875 196.574219 279.917969 195.503906 291.296875 C 194.210938 305.0625 182.820312 316.289062 169.015625 317.417969 C 164.328125 317.800781 159.773438 317.09375 155.492188 315.320312 C 148.960938 312.617188 141.769531 312.617188 135.246094 315.320312 C 131.71875 316.78125 128.007812 317.515625 124.1875 317.515625 Z M 145.375 242.183594 C 136.140625 242.183594 127.664062 247.226562 123.257812 255.34375 C 120.78125 259.910156 116.898438 263.714844 111.722656 266.660156 C 103.140625 271.546875 98.195312 281.070312 99.117188 290.925781 C 100.234375 302.835938 110.089844 312.554688 122.039062 313.53125 C 126.109375 313.863281 130.046875 313.253906 133.75 311.71875 C 141.242188 308.613281 149.492188 308.613281 156.988281 311.71875 C 160.691406 313.25 164.632812 313.863281 168.699219 313.53125 C 180.644531 312.554688 190.5 302.839844 191.617188 290.933594 C 192.546875 281.078125 187.601562 271.550781 179.027344 266.667969 C 173.851562 263.71875 169.972656 259.914062 167.503906 255.355469 C 163.09375 247.226562 154.617188 242.183594 145.375 242.183594 Z M 145.375 242.183594 " fill-opacity="1" fill-rule="nonzero"/><path fill="#ed6e7a" d="M 322.921875 112.328125 C 320.070312 111.769531 317.121094 112.148438 314.511719 113.429688 C 312.738281 114.300781 310.386719 115.191406 307.339844 115.945312 C 296.871094 118.539062 282.789062 118.441406 268.710938 115.679688 C 254.632812 112.914062 241.5625 107.679688 232.855469 101.316406 C 230.324219 99.46875 228.484375 97.757812 227.171875 96.28125 C 225.242188 94.109375 222.65625 92.640625 219.804688 92.078125 C 207.238281 89.613281 198.800781 104.515625 207.347656 114.042969 C 209.925781 116.917969 213.144531 119.847656 217.144531 122.769531 C 229.058594 131.472656 245.550781 138.21875 263.578125 141.757812 C 281.605469 145.296875 299.425781 145.292969 313.753906 141.738281 C 318.5625 140.546875 322.652344 139.054688 326.128906 137.367188 C 337.648438 131.78125 335.488281 114.796875 322.921875 112.328125 Z M 322.921875 112.328125 " fill-opacity="1" fill-rule="nonzero"/><path fill="#3a312a" d="M 290.007812 146.355469 C 281.390625 146.355469 272.320312 145.460938 263.199219 143.671875 C 244.898438 140.078125 228.132812 133.214844 215.992188 124.34375 C 212.089844 121.492188 208.691406 118.464844 205.894531 115.347656 C 201.417969 110.359375 200.667969 103.382812 203.976562 97.574219 C 207.273438 91.789062 213.632812 88.878906 220.179688 90.167969 C 223.4375 90.808594 226.441406 92.519531 228.632812 94.988281 C 230.023438 96.554688 231.832031 98.15625 234.007812 99.746094 C 242.492188 105.945312 255.28125 111.054688 269.089844 113.765625 C 282.894531 116.476562 296.667969 116.582031 306.871094 114.054688 C 309.484375 113.40625 311.765625 112.609375 313.648438 111.683594 C 316.613281 110.226562 320.042969 109.777344 323.300781 110.417969 C 329.847656 111.703125 334.632812 116.796875 335.488281 123.398438 C 336.351562 130.027344 333.011719 136.199219 326.980469 139.125 C 323.210938 140.953125 318.917969 142.46875 314.222656 143.632812 C 306.898438 145.449219 298.683594 146.355469 290.007812 146.355469 Z M 217.023438 93.753906 C 212.371094 93.753906 209.046875 96.5625 207.371094 99.5 C 205.410156 102.945312 204.753906 108.230469 208.800781 112.742188 C 211.417969 115.660156 214.613281 118.503906 218.296875 121.195312 C 229.984375 129.734375 246.199219 136.359375 263.953125 139.84375 C 281.710938 143.328125 299.226562 143.332031 313.28125 139.847656 C 317.710938 138.746094 321.746094 137.324219 325.273438 135.613281 C 330.730469 132.96875 332.128906 127.828125 331.617188 123.898438 C 331.109375 119.992188 328.460938 115.402344 322.546875 114.242188 C 320.125 113.765625 317.574219 114.097656 315.371094 115.179688 C 313.238281 116.226562 310.695312 117.121094 307.8125 117.835938 C 297.070312 120.496094 282.683594 120.410156 268.335938 117.589844 C 253.984375 114.773438 240.632812 109.414062 231.703125 102.890625 C 229.304688 101.136719 227.285156 99.347656 225.710938 97.574219 C 224.082031 95.742188 221.851562 94.46875 219.425781 93.992188 C 218.589844 93.828125 217.789062 93.753906 217.023438 93.753906 Z M 217.023438 93.753906 " fill-opacity="1" fill-rule="nonzero"/><path fill="#87796f" d="M 150.804688 78.042969 L 186.96875 91.175781 L 187.847656 88.753906 C 193.550781 73.089844 183.519531 55.074219 165.449219 48.511719 C 147.378906 41.953125 128.109375 49.328125 122.40625 64.992188 L 121.523438 67.410156 L 133.226562 71.660156 Z M 150.804688 78.042969 " fill-opacity="1" fill-rule="nonzero"/><path fill="#3a312a" d="M 186.96875 93.125 C 186.746094 93.125 186.523438 93.085938 186.300781 93.003906 L 150.136719 79.875 C 149.125 79.507812 148.601562 78.386719 148.96875 77.375 C 149.339844 76.363281 150.457031 75.839844 151.472656 76.210938 L 185.800781 88.675781 L 186.015625 88.085938 C 191.339844 73.460938 181.8125 56.527344 164.785156 50.34375 C 147.75 44.160156 129.566406 51.027344 124.242188 65.65625 L 124.027344 66.242188 L 133.894531 69.828125 C 134.90625 70.195312 135.429688 71.3125 135.0625 72.324219 C 134.691406 73.335938 133.574219 73.859375 132.5625 73.492188 L 120.859375 69.242188 C 119.847656 68.875 119.324219 67.753906 119.691406 66.742188 L 120.574219 64.324219 C 126.632812 47.675781 147.066406 39.761719 166.121094 46.679688 C 185.171875 53.597656 195.746094 72.769531 189.683594 89.417969 L 188.804688 91.839844 C 188.515625 92.632812 187.765625 93.125 186.96875 93.125 Z M 186.96875 93.125 " fill-opacity="1" fill-rule="nonzero"/><path fill="#ed6e7a" d="M 322.921875 78.195312 C 320.070312 78.757812 317.121094 78.375 314.511719 77.09375 C 312.738281 76.222656 310.386719 75.335938 307.339844 74.578125 C 296.871094 71.984375 282.789062 72.082031 268.710938 74.847656 C 254.632812 77.609375 241.5625 82.84375 232.855469 89.207031 C 230.324219 91.054688 228.484375 92.765625 227.171875 94.242188 C 225.242188 96.414062 222.65625 97.882812 219.804688 98.445312 C 207.238281 100.910156 198.800781 86.007812 207.347656 76.480469 C 209.925781 73.605469 213.144531 70.675781 217.144531 67.753906 C 229.058594 59.050781 245.550781 52.308594 263.578125 48.765625 C 281.605469 45.226562 299.425781 45.234375 313.753906 48.785156 C 318.5625 49.976562 322.652344 51.472656 326.128906 53.15625 C 337.648438 58.742188 335.488281 75.726562 322.921875 78.195312 Z M 322.921875 78.195312 " fill-opacity="1" fill-rule="nonzero"/><path fill="#3a312a" d="M 217.117188 100.65625 C 211.707031 100.65625 206.753906 97.828125 203.976562 92.949219 C 200.667969 87.140625 201.421875 80.167969 205.894531 75.179688 C 208.6875 72.0625 212.085938 69.035156 215.992188 66.179688 C 228.128906 57.3125 244.894531 50.449219 263.199219 46.855469 C 281.503906 43.257812 299.625 43.273438 314.222656 46.894531 C 318.917969 48.058594 323.210938 49.574219 326.980469 51.402344 C 333.011719 54.328125 336.351562 60.5 335.488281 67.128906 C 334.632812 73.726562 329.847656 78.820312 323.300781 80.109375 C 320.042969 80.746094 316.617188 80.300781 313.648438 78.84375 C 311.761719 77.917969 309.484375 77.121094 306.871094 76.472656 C 296.667969 73.941406 282.894531 74.046875 269.089844 76.757812 C 255.28125 79.46875 242.492188 84.582031 234.007812 90.78125 C 231.835938 92.367188 230.023438 93.96875 228.632812 95.539062 C 226.441406 98.007812 223.4375 99.71875 220.179688 100.359375 C 219.148438 100.558594 218.125 100.65625 217.117188 100.65625 Z M 290.011719 48.0625 C 281.65625 48.0625 272.832031 48.9375 263.957031 50.679688 C 246.199219 54.167969 229.984375 60.789062 218.296875 69.328125 C 214.609375 72.019531 211.414062 74.867188 208.800781 77.78125 C 204.753906 82.292969 205.410156 87.578125 207.371094 91.023438 C 209.324219 94.445312 213.515625 97.695312 219.425781 96.53125 C 221.851562 96.054688 224.082031 94.78125 225.710938 92.949219 C 227.289062 91.175781 229.304688 89.382812 231.703125 87.632812 C 240.636719 81.105469 253.988281 75.75 268.335938 72.933594 C 282.683594 70.117188 297.074219 70.027344 307.8125 72.6875 C 310.691406 73.402344 313.238281 74.296875 315.371094 75.34375 C 317.574219 76.425781 320.125 76.757812 322.546875 76.285156 C 328.460938 75.121094 331.109375 70.535156 331.617188 66.628906 C 332.128906 62.699219 330.726562 57.558594 325.273438 54.910156 C 321.75 53.199219 317.714844 51.777344 313.28125 50.679688 C 306.257812 48.933594 298.367188 48.0625 290.011719 48.0625 Z M 322.921875 78.195312 L 322.9375 78.195312 Z M 322.921875 78.195312 " fill-opacity="1" fill-rule="nonzero"/><path fill="#87796f" d="M 132.722656 119.050781 L 121.527344 123.113281 L 122.40625 125.535156 C 128.109375 141.195312 147.382812 148.574219 165.453125 142.011719 C 183.523438 135.449219 193.550781 117.433594 187.851562 101.769531 L 186.96875 99.351562 L 151.921875 112.078125 Z M 132.722656 119.050781 " fill-opacity="1" fill-rule="nonzero"/><path fill="#3a312a" d="M 152.007812 146.367188 C 147.382812 146.367188 142.839844 145.554688 138.589844 143.929688 C 129.925781 140.613281 123.527344 134.316406 120.570312 126.199219 L 119.691406 123.777344 C 119.320312 122.769531 119.84375 121.648438 120.859375 121.28125 L 132.054688 117.214844 C 133.066406 116.847656 134.1875 117.371094 134.554688 118.382812 C 134.921875 119.394531 134.398438 120.511719 133.386719 120.878906 L 124.027344 124.28125 L 124.242188 124.867188 C 126.804688 131.90625 132.394531 137.378906 139.988281 140.285156 C 147.679688 143.230469 156.484375 143.191406 164.785156 140.179688 C 181.8125 133.996094 191.339844 117.066406 186.015625 102.4375 L 185.800781 101.847656 L 152.585938 113.910156 C 151.570312 114.277344 150.449219 113.753906 150.082031 112.742188 C 149.714844 111.730469 150.238281 110.613281 151.25 110.246094 L 186.300781 97.515625 C 187.3125 97.148438 188.433594 97.671875 188.800781 98.683594 L 189.683594 101.105469 C 195.742188 117.753906 185.167969 136.925781 166.117188 143.84375 C 161.488281 145.527344 156.707031 146.367188 152.007812 146.367188 Z M 152.007812 146.367188 " fill-opacity="1" fill-rule="nonzero"/><path fill="#fae6ca" d="M 216.140625 73.886719 C 227.753906 83.265625 229.558594 100.273438 220.167969 111.875 C 210.777344 123.476562 193.75 125.277344 182.132812 115.898438 C 170.519531 106.515625 168.714844 89.507812 178.105469 77.910156 C 187.496094 66.308594 204.523438 64.507812 216.140625 73.886719 Z M 216.140625 73.886719 " fill-opacity="1" fill-rule="nonzero"/><path fill="#3a312a" d="M 199.082031 123.855469 C 192.472656 123.855469 186.113281 121.621094 180.90625 117.414062 C 168.46875 107.371094 166.535156 89.097656 176.585938 76.679688 C 181.457031 70.667969 188.382812 66.90625 196.082031 66.089844 C 203.789062 65.273438 211.34375 67.503906 217.367188 72.371094 C 223.390625 77.234375 227.15625 84.148438 227.972656 91.839844 C 228.785156 99.535156 226.554688 107.082031 221.683594 113.097656 C 216.8125 119.113281 209.890625 122.878906 202.1875 123.691406 C 201.148438 123.800781 200.113281 123.855469 199.082031 123.855469 Z M 199.183594 69.824219 C 198.292969 69.824219 197.394531 69.871094 196.496094 69.96875 C 189.832031 70.671875 183.839844 73.925781 179.625 79.132812 C 170.925781 89.878906 172.601562 105.691406 183.359375 114.378906 C 188.574219 118.589844 195.117188 120.515625 201.777344 119.8125 C 208.445312 119.109375 214.4375 115.855469 218.648438 110.648438 C 222.863281 105.441406 224.796875 98.910156 224.089844 92.25 C 223.386719 85.59375 220.125 79.609375 214.914062 75.402344 C 210.402344 71.761719 204.902344 69.824219 199.183594 69.824219 Z M 199.183594 69.824219 " fill-opacity="1" fill-rule="nonzero"/><path fill="#d7e057" d="M 206.535156 86.9375 C 207.058594 87.421875 207.527344 87.953125 207.945312 88.53125 C 208.367188 89.109375 208.722656 89.722656 209.019531 90.371094 C 209.316406 91.015625 209.546875 91.6875 209.714844 92.382812 C 209.878906 93.074219 209.972656 93.777344 210 94.492188 C 210.027344 95.203125 209.984375 95.910156 209.871094 96.613281 C 209.757812 97.320312 209.574219 98.003906 209.328125 98.671875 C 209.078125 99.339844 208.765625 99.980469 208.390625 100.585938 C 208.019531 101.191406 207.585938 101.757812 207.101562 102.28125 C 206.617188 102.800781 206.082031 103.273438 205.503906 103.691406 C 204.925781 104.105469 204.3125 104.464844 203.664062 104.761719 C 203.015625 105.058594 202.34375 105.289062 201.648438 105.453125 C 200.957031 105.617188 200.25 105.714844 199.539062 105.738281 C 198.824219 105.765625 198.117188 105.722656 197.410156 105.609375 C 196.707031 105.496094 196.019531 105.316406 195.351562 105.066406 C 194.679688 104.820312 194.042969 104.507812 193.4375 104.132812 C 192.828125 103.761719 192.261719 103.332031 191.738281 102.84375 C 191.214844 102.359375 190.746094 101.828125 190.328125 101.25 C 189.910156 100.671875 189.550781 100.058594 189.253906 99.410156 C 188.957031 98.765625 188.726562 98.09375 188.5625 97.398438 C 188.398438 96.707031 188.300781 96.003906 188.273438 95.289062 C 188.25 94.578125 188.292969 93.871094 188.40625 93.167969 C 188.519531 92.460938 188.699219 91.777344 188.949219 91.109375 C 189.199219 90.441406 189.507812 89.800781 189.882812 89.195312 C 190.257812 88.589844 190.6875 88.023438 191.171875 87.5 C 191.660156 86.980469 192.191406 86.507812 192.769531 86.09375 C 193.347656 85.675781 193.960938 85.316406 194.609375 85.019531 C 195.257812 84.722656 195.929688 84.492188 196.625 84.328125 C 197.320312 84.164062 198.023438 84.066406 198.738281 84.042969 C 199.449219 84.015625 200.160156 84.058594 200.863281 84.171875 C 201.570312 84.285156 202.253906 84.464844 202.925781 84.714844 C 203.59375 84.960938 204.230469 85.273438 204.839844 85.648438 C 205.449219 86.023438 206.011719 86.449219 206.535156 86.9375 Z M 206.535156 86.9375 " fill-opacity="1" fill-rule="nonzero"/><path fill="#3a312a" d="M 199.113281 107.699219 C 196.191406 107.699219 193.378906 106.710938 191.074219 104.851562 C 188.410156 102.699219 186.746094 99.640625 186.386719 96.238281 C 186.023438 92.835938 187.011719 89.496094 189.164062 86.835938 C 191.320312 84.179688 194.378906 82.515625 197.785156 82.152344 C 201.1875 81.796875 204.535156 82.78125 207.199219 84.929688 C 209.859375 87.082031 211.527344 90.140625 211.886719 93.542969 C 212.25 96.945312 211.261719 100.28125 209.109375 102.941406 C 206.953125 105.601562 203.894531 107.265625 200.488281 107.625 C 200.027344 107.675781 199.566406 107.699219 199.113281 107.699219 Z M 199.152344 85.980469 C 198.835938 85.980469 198.515625 86 198.199219 86.03125 C 195.828125 86.285156 193.699219 87.441406 192.203125 89.289062 C 190.703125 91.140625 190.015625 93.460938 190.269531 95.828125 C 190.519531 98.191406 191.679688 100.320312 193.53125 101.816406 C 195.382812 103.3125 197.710938 104 200.078125 103.746094 C 202.445312 103.496094 204.574219 102.339844 206.074219 100.488281 C 207.570312 98.640625 208.257812 96.320312 208.007812 93.953125 C 207.753906 91.585938 206.597656 89.460938 204.746094 87.964844 C 203.140625 86.667969 201.1875 85.980469 199.152344 85.980469 Z M 199.152344 85.980469 " fill-opacity="1" fill-rule="nonzero"/><path fill="#dac6a8" d="M 242.878906 227.484375 C 239.179688 217.527344 231.605469 210.105469 222.117188 207.113281 C 217.71875 205.722656 213.125 205.347656 208.425781 205.984375 C 207.90625 206.046875 207.371094 205.90625 206.957031 205.566406 C 206.539062 205.242188 206.28125 204.761719 206.226562 204.230469 C 205.601562 197.558594 203.480469 191.203125 200.097656 185.859375 C 194.410156 176.890625 185.46875 171.183594 175.5625 170.210938 C 171.21875 169.78125 166.882812 170.289062 162.757812 171.640625 C 169.929688 174.007812 176.214844 178.972656 180.574219 185.859375 C 181.214844 186.875 181.8125 187.929688 182.371094 189.007812 C 184.113281 190.359375 185.675781 192.085938 186.976562 194.15625 C 189.113281 197.519531 190.414062 201.539062 190.792969 205.789062 C 194.839844 205.464844 198.78125 205.90625 202.597656 207.113281 C 210.992188 209.765625 217.890625 215.875 221.921875 224.15625 C 224.734375 226.183594 226.945312 229.171875 228.328125 232.890625 C 230.332031 238.246094 230.371094 244.511719 228.46875 250.542969 C 226.855469 255.640625 224.007812 260.058594 220.324219 263.257812 C 217.148438 269.09375 212.734375 274.074219 207.476562 277.6875 C 203.625 280.335938 199.472656 282.15625 195.113281 283.121094 C 195.621094 285.769531 195.761719 288.527344 195.503906 291.296875 C 194.8125 298.628906 191.261719 305.242188 186.003906 309.988281 C 179.886719 320.90625 169.253906 329.109375 156.796875 331.945312 C 161.195312 332.917969 165.765625 333.242188 170.28125 332.867188 C 191.480469 331.136719 208.972656 313.886719 210.953125 292.75 C 211.1875 290.386719 211.210938 287.96875 211.042969 285.539062 C 210.976562 284.535156 211.679688 283.640625 212.683594 283.484375 C 217.757812 282.675781 222.574219 280.726562 227 277.6875 C 234.546875 272.5 240.328125 264.519531 243.269531 255.210938 C 246.210938 245.917969 246.066406 236.0625 242.878906 227.484375 Z M 242.878906 227.484375 " fill-opacity="1" fill-rule="nonzero"/></svg>