<svg xmlns="http://www.w3.org/2000/svg" xmlns:xlink="http://www.w3.org/1999/xlink" width="250" zoomAndPan="magnify" viewBox="0 0 375 374.999991" height="250" preserveAspectRatio="xMidYMid meet" version="1.0"><defs><clipPath id="02bc8a3c38"><path d="M 154 105 L 343.816406 105 L 343.816406 319 L 154 319 Z M 154 105 " clip-rule="nonzero"/></clipPath><clipPath id="e86345fc20"><path d="M 212 56.398438 L 326 56.398438 L 326 161 L 212 161 Z M 212 56.398438 " clip-rule="nonzero"/></clipPath><clipPath id="8799351dcc"><path d="M 31.066406 116 L 165 116 L 165 327 L 31.066406 327 Z M 31.066406 116 " clip-rule="nonzero"/></clipPath></defs><rect x="-37.5" width="450" fill="#ffffff" y="-37.499999" height="449.999989" fill-opacity="1"/><rect x="-37.5" width="450" fill="#ecffd4" y="-37.499999" height="449.999989" fill-opacity="1"/><g clip-path="url(#02bc8a3c38)"><path fill="#ffcea1" d="M 343.605469 216.964844 C 343.605469 226.765625 334.117188 245.746094 321.199219 256.734375 C 318.140625 259.292969 314.144531 262.414062 309.714844 265.785156 C 309.527344 282.015625 314.082031 301.371094 309.714844 313.042969 C 201.609375 329.398438 178.390625 300.558594 178.390625 300.558594 C 178.390625 300.558594 180.015625 280.769531 188.628906 259.917969 C 196.429688 241 201.734375 218.339844 208.289062 209.785156 C 208.726562 202.855469 208.914062 197.175781 208.664062 195.492188 C 207.851562 190.246094 209.222656 183.878906 209.222656 183.878906 C 209.222656 183.878906 204.542969 188.1875 200.425781 195.492188 C 196.304688 202.792969 179.453125 209.164062 177.515625 208.976562 C 175.582031 208.789062 165.597656 197.800781 161.851562 189.808594 C 158.105469 181.757812 155.171875 158.285156 154.421875 158.285156 C 153.613281 158.285156 177.890625 141.054688 177.890625 141.054688 C 178.890625 136.558594 189.0625 133 191 131.25 C 192.933594 129.503906 195.304688 127.320312 199.800781 117.953125 C 204.292969 108.527344 214.28125 106.96875 218.023438 105.46875 C 218.023438 105.46875 254.226562 143.988281 263.589844 144.175781 C 273.011719 144.363281 306.46875 148.417969 316.019531 141.054688 C 320.011719 145.546875 324.445312 151.105469 328.625 157.660156 C 340.421875 176.074219 343.605469 207.164062 343.605469 216.964844 Z M 343.605469 216.964844 " fill-opacity="1" fill-rule="nonzero"/></g><g clip-path="url(#e86345fc20)"><path fill="#34352c" d="M 217.339844 118.265625 C 212.34375 115.519531 211.160156 108.527344 212.96875 103.097656 C 213.34375 102.035156 213.78125 100.910156 213.78125 99.789062 C 213.71875 98.851562 213.40625 97.976562 213.15625 97.039062 C 212.59375 94.480469 213.40625 91.671875 215.277344 89.863281 C 215.964844 89.175781 216.777344 88.675781 217.277344 87.863281 C 217.714844 87.113281 217.898438 86.179688 218.023438 85.304688 C 219.023438 80.308594 221.894531 75.691406 225.890625 72.570312 C 227.886719 67.449219 233.503906 63.953125 238.933594 64.515625 C 243.242188 59.457031 250.605469 57.335938 256.847656 59.398438 C 258.46875 56.960938 261.964844 56.398438 264.710938 57.335938 C 267.457031 58.273438 269.707031 60.332031 271.765625 62.332031 C 274.386719 59.832031 278.445312 58.210938 282 58.398438 C 283.0625 58.460938 284.1875 58.648438 285.121094 59.273438 C 286.058594 59.894531 286.683594 60.894531 286.621094 62.019531 C 289.179688 61.957031 291.863281 62.082031 294.234375 63.203125 C 296.605469 64.265625 298.605469 66.386719 298.976562 68.949219 C 302.910156 69.136719 306.15625 73.070312 306.53125 76.9375 C 311.648438 80.058594 314.832031 86.179688 314.707031 92.171875 C 320.074219 95.417969 322.136719 102.910156 321.074219 109.089844 C 320.699219 111.398438 322.570312 112.648438 323.820312 114.644531 C 324.195312 115.269531 324.632812 115.894531 324.882812 116.582031 C 325.128906 117.332031 325.128906 118.203125 325.128906 119.015625 C 325.066406 121.199219 324.820312 123.636719 323.195312 125.132812 C 322.820312 125.445312 322.382812 125.757812 322.195312 126.257812 C 322.011719 126.632812 322.074219 127.070312 322.136719 127.507812 C 322.570312 132.6875 321.011719 138.492188 316.515625 141.117188 C 311.460938 144.050781 307.714844 149.667969 303.035156 153.164062 C 298.355469 156.660156 292.925781 159.34375 287.183594 160.03125 C 284.933594 160.28125 282.625 160.21875 280.566406 159.34375 C 278.878906 158.59375 277.445312 157.410156 276.132812 156.160156 C 271.640625 152.101562 267.519531 147.609375 263.777344 142.863281 C 261.09375 139.429688 258.59375 135.808594 255.476562 132.8125 C 252.292969 129.816406 248.359375 127.445312 243.988281 127.132812 C 239.496094 126.820312 234.941406 128.691406 230.632812 127.445312 C 228.261719 126.757812 226.328125 125.257812 224.390625 123.761719 C 222.144531 121.886719 219.835938 119.640625 217.339844 118.265625 Z M 217.339844 118.265625 " fill-opacity="1" fill-rule="nonzero"/></g><g clip-path="url(#8799351dcc)"><path fill="#ff9f73" d="M 163.347656 218.277344 C 160.601562 226.953125 155.359375 226.953125 157.230469 244.121094 C 159.042969 261.289062 153.113281 302.179688 152.925781 307.363281 C 152.800781 312.542969 160.601562 312.042969 159.480469 319.035156 C 158.730469 323.84375 142.5 323.03125 135.011719 321.910156 C 127.523438 320.847656 123.652344 320.847656 123.089844 317.601562 C 123.089844 317.601562 116.535156 322.71875 109.921875 322.71875 C 109.046875 322.71875 107.921875 322.71875 106.613281 322.65625 C 105.238281 324.40625 101.808594 326.027344 94.878906 326.089844 C 85.765625 326.152344 79.148438 324.90625 59.550781 325.839844 C 39.953125 326.777344 31.652344 325.21875 31.464844 315.355469 C 31.277344 305.488281 39.265625 296.5625 39.265625 296.5625 C 42.886719 284.515625 54.183594 267.097656 58.550781 258.167969 C 62.921875 249.179688 75.964844 220.148438 80.148438 210.347656 C 84.332031 200.609375 93.503906 192.554688 93.503906 192.554688 C 92.195312 162.527344 104.800781 161.21875 104.800781 161.21875 C 106.925781 156.410156 112.042969 152.039062 117.472656 151.167969 C 117.472656 151.167969 125.773438 139.679688 127.460938 138.742188 C 129.144531 137.808594 145.3125 122.199219 145.3125 122.199219 C 145.3125 122.199219 144.4375 118.078125 146.121094 117.144531 C 147.808594 116.207031 152.988281 118.765625 154.296875 121.636719 C 155.609375 124.507812 166.15625 145.921875 164.160156 154.351562 C 162.164062 162.777344 159.292969 162.777344 159.292969 162.777344 C 159.292969 162.777344 160.851562 175.636719 156.671875 188.0625 C 156.671875 188.0625 159.292969 194.304688 162.039062 197.738281 C 164.847656 201.234375 166.09375 209.597656 163.347656 218.277344 Z M 163.347656 218.277344 " fill-opacity="1" fill-rule="nonzero"/></g><path fill="#ef7a63" d="M 294.921875 109.714844 C 294.171875 109.714844 293.359375 109.464844 292.738281 108.964844 C 292.738281 108.964844 296.355469 108.777344 297.355469 107.839844 C 298.730469 106.59375 299.976562 103.597656 299.976562 103.597656 C 299.914062 105.65625 299.164062 107.402344 297.980469 108.527344 C 297.230469 109.214844 296.046875 109.714844 294.921875 109.714844 Z M 312.023438 119.765625 C 312.023438 119.765625 311.960938 119.890625 311.835938 120.140625 C 311.898438 120.015625 311.960938 119.890625 312.023438 119.765625 Z M 313.085938 106.46875 C 314.082031 104.90625 314.332031 102.972656 314.519531 101.285156 C 314.519531 101.285156 313.210938 104.59375 312.335938 105.96875 C 311.523438 107.214844 308.152344 108.589844 308.152344 108.589844 C 308.527344 108.714844 308.902344 108.777344 309.277344 108.777344 C 310.773438 108.714844 312.273438 107.714844 313.085938 106.46875 Z M 311.710938 120.328125 C 311.773438 120.265625 311.835938 120.203125 311.835938 120.078125 C 311.773438 120.203125 311.773438 120.265625 311.710938 120.328125 Z M 307.652344 122.761719 C 307.964844 122.824219 308.277344 122.824219 308.589844 122.824219 C 309.902344 122.824219 311.148438 121.199219 311.710938 120.328125 C 310.835938 121.449219 309.277344 122.136719 307.839844 121.824219 C 307.09375 121.699219 306.40625 121.324219 305.71875 120.886719 C 304.84375 120.453125 302.847656 120.765625 302.847656 120.765625 C 303.722656 120.886719 304.472656 121.261719 305.28125 121.699219 C 305.96875 122.136719 306.78125 122.574219 307.652344 122.761719 Z M 301.414062 137.058594 C 303.785156 134 303.097656 128.441406 302.347656 127.382812 C 299.476562 123.699219 294.171875 121.261719 287.867188 126.820312 C 285.496094 128.878906 282.3125 130.753906 279.191406 131.003906 C 276.070312 131.1875 272.765625 129.941406 271.140625 127.257812 C 269.894531 125.195312 269.707031 122.574219 268.144531 120.765625 C 266.460938 118.828125 263.652344 118.328125 261.03125 118.265625 C 258.46875 118.203125 255.722656 118.390625 253.414062 117.332031 C 250.230469 115.894531 248.359375 112.335938 247.859375 108.839844 C 247.671875 107.589844 247.609375 106.21875 246.921875 105.15625 C 244.550781 107.09375 238.933594 106.28125 236.3125 108.339844 C 235.128906 109.277344 234.253906 110.527344 233.128906 111.585938 C 231.695312 113.023438 229.882812 114.144531 228.136719 115.144531 C 225.078125 116.894531 221.519531 118.453125 218.148438 118.265625 C 219.773438 123.949219 224.078125 128.878906 224.203125 131.75 C 224.390625 134.996094 222.207031 142.863281 220.832031 147.296875 C 219.460938 151.726562 218.460938 153.539062 219.648438 154.476562 C 220.769531 155.472656 225.890625 156.597656 225.890625 156.597656 C 225.890625 156.597656 230.945312 173.140625 235.875 176.386719 C 240.808594 179.632812 249.109375 177.886719 249.109375 177.886719 C 249.109375 177.886719 247.484375 189.183594 246.800781 195.554688 C 246.800781 195.554688 250.542969 192.617188 257.097656 189.496094 C 263.652344 186.375 285.933594 178.074219 295.984375 170.519531 C 306.03125 162.964844 308.964844 151.726562 309.589844 143.863281 C 309.589844 143.800781 301.972656 146.359375 301.414062 137.058594 Z M 311.710938 134.375 C 310.773438 134.808594 308.089844 134.621094 308.089844 134.621094 C 308.714844 135.308594 309.527344 135.558594 310.402344 135.558594 C 311.023438 135.558594 311.585938 135.433594 312.085938 135.183594 C 313.335938 134.621094 314.332031 132 314.332031 132 C 313.644531 132.875 312.773438 133.875 311.710938 134.375 Z M 276.007812 117.953125 C 277.320312 118.328125 278.753906 118.328125 279.941406 118.203125 L 280.066406 118.203125 C 280.878906 118.140625 281.6875 118.078125 282.4375 118.328125 C 283.125 118.515625 283.75 119.140625 283.75 119.828125 C 283.75 119.828125 283.625 117.765625 282.6875 117.453125 C 281.75 117.144531 280.878906 117.207031 279.941406 117.269531 L 279.816406 117.269531 C 278.691406 117.332031 277.382812 117.394531 276.195312 117.019531 C 275.011719 116.644531 272.828125 115.207031 272.828125 115.207031 C 273.386719 116.519531 274.511719 117.515625 276.007812 117.953125 Z M 221.332031 261.601562 C 221.332031 261.601562 210.410156 248.929688 203.667969 244.433594 C 196.929688 239.878906 176.144531 218.464844 173.523438 214.28125 C 172.085938 211.972656 169.527344 207.976562 166.15625 205.167969 C 167.65625 204.417969 169.089844 203.542969 170.464844 202.546875 C 167.21875 198.738281 163.722656 193.929688 161.851562 189.871094 C 160.726562 187.5 159.730469 183.816406 158.792969 179.757812 C 158.355469 182.503906 157.730469 185.378906 156.734375 188.1875 C 156.734375 188.1875 159.355469 194.429688 162.101562 197.863281 C 163.160156 199.238281 164.035156 201.359375 164.472656 203.917969 C 162.164062 202.359375 159.480469 201.546875 156.671875 202.109375 C 156.671875 202.109375 156.484375 209.164062 150.117188 210.722656 C 143.75 212.285156 140.253906 211.347656 135.761719 213.71875 C 131.203125 216.09375 123.714844 213.90625 122.15625 209.972656 C 120.59375 206.042969 120.40625 198.550781 119.78125 197.488281 C 119.160156 196.363281 118.035156 188.125 114.476562 188.25 C 114.476562 188.25 113.355469 189.683594 113.539062 193.742188 C 113.539062 193.742188 112.292969 182.941406 109.484375 182.816406 C 109.484375 182.816406 109.296875 186.4375 106.800781 188.9375 C 110.109375 198.425781 108.046875 209.101562 108.671875 210.972656 C 109.296875 212.847656 114.164062 212.535156 114.164062 212.535156 C 114.164062 212.535156 114.351562 215.84375 117.285156 216.777344 C 120.28125 217.714844 121.84375 223.519531 129.144531 223.519531 C 136.449219 223.519531 152.925781 226.019531 156.671875 227.890625 C 160.414062 229.765625 183.195312 285.761719 199.488281 297.3125 C 206.976562 302.617188 237.125 302.304688 249.980469 294.816406 C 249.980469 294.816406 232.628906 270.28125 228.574219 257.605469 C 228.574219 257.359375 225.328125 259.105469 221.332031 261.601562 Z M 125.585938 149.230469 C 128.644531 147.296875 133.949219 149.230469 133.949219 149.230469 C 134.324219 148.855469 135.199219 147.734375 135.199219 147.734375 C 135.199219 147.734375 139.628906 150.292969 142.003906 148.730469 C 144.4375 147.234375 143.8125 140.742188 143.8125 140.742188 C 143.8125 140.742188 147.496094 141.363281 148.742188 137.929688 C 149.992188 134.5 146.058594 124.757812 145.3125 122.136719 C 145.3125 122.136719 142.875 120.886719 141.003906 122.136719 C 139.132812 123.386719 138.757812 127.320312 138.757812 127.320312 C 138.757812 127.320312 134.574219 126.820312 131.703125 128.441406 C 128.769531 130.066406 128.769531 133.625 128.769531 133.625 C 128.769531 133.625 124.464844 132.5 121.65625 135.058594 C 118.847656 137.621094 120.65625 141.988281 120.65625 141.988281 C 120.65625 141.988281 118.910156 142.988281 117.472656 144.921875 C 116.101562 146.796875 117.472656 151.105469 117.472656 151.105469 C 118.785156 151.042969 122.589844 151.167969 125.585938 149.230469 Z M 125.585938 149.230469 " fill-opacity="1" fill-rule="nonzero"/><path fill="#34352c" d="M 296.105469 128.191406 C 293.421875 128.878906 288.742188 132.3125 288.742188 132.3125 C 290.425781 129.878906 293.050781 128.003906 295.921875 127.257812 Z M 225.890625 156.535156 C 225.890625 156.535156 226.265625 157.785156 226.265625 157.785156 C 228.636719 157.785156 230.820312 156.660156 232.941406 155.785156 C 232.941406 155.785156 228.136719 156.535156 225.890625 156.535156 Z M 246.425781 132.6875 C 245.550781 131.3125 243.804688 131.625 242.179688 131.5 C 239.183594 131.1875 236.25 130.753906 233.316406 130.191406 C 232.132812 129.941406 230.882812 129.691406 229.632812 129.816406 C 228.386719 129.941406 227.136719 130.316406 226.511719 131.375 C 229.882812 131.25 233.191406 132.3125 236.5 133.0625 C 239.808594 133.8125 243.367188 134.1875 246.425781 132.6875 Z M 239.996094 141.550781 C 240.308594 139.804688 238.371094 135.121094 236.25 134.871094 C 233.503906 134.558594 234.753906 139.929688 235.5 141.425781 C 236.0625 142.550781 237.1875 143.675781 238.371094 143.363281 C 239.246094 143.238281 239.871094 142.425781 239.996094 141.550781 Z M 232.566406 164.777344 C 231.257812 164.839844 229.695312 164.839844 228.574219 164.152344 C 228.761719 164.589844 228.886719 165.027344 229.074219 165.398438 C 229.882812 165.648438 230.757812 165.773438 231.570312 165.773438 C 231.945312 165.773438 232.257812 165.773438 232.566406 165.710938 C 233.628906 165.648438 234.816406 165.523438 235.875 165.152344 C 237.125 164.714844 238.0625 163.964844 238.621094 163.027344 C 238.621094 163.027344 236.5625 163.902344 235.5625 164.277344 C 234.691406 164.589844 233.753906 164.714844 232.566406 164.777344 Z M 154.234375 218.964844 C 154.859375 219.152344 155.484375 219.277344 155.984375 219.277344 C 155.984375 219.277344 155.296875 219.152344 154.234375 218.964844 Z M 147.996094 217.027344 L 148.492188 217.277344 C 149.804688 218.027344 152.550781 218.652344 154.296875 218.964844 C 152.488281 218.402344 150.367188 217.214844 148.929688 216.464844 L 148.429688 216.21875 C 146.558594 215.15625 146.121094 215.03125 141.628906 215.21875 C 136.574219 215.46875 131.328125 214.84375 131.328125 214.84375 C 132.328125 216.03125 137.382812 216.34375 141.628906 216.15625 C 146.058594 215.90625 146.308594 216.09375 147.996094 217.027344 Z M 140.066406 134.4375 C 141.003906 136.996094 142.5 138.867188 143.375 139.742188 C 142.5625 138.492188 141.503906 135.621094 140.941406 134.125 C 140.628906 133.3125 140.441406 132.6875 140.191406 132.1875 C 139.320312 130.128906 139.132812 128.066406 139.195312 127.507812 C 139.195312 127.507812 138.382812 130.378906 139.320312 132.5625 C 139.570312 132.9375 139.816406 133.625 140.066406 134.4375 Z M 144 140.304688 C 144 140.304688 143.75 140.117188 143.375 139.679688 C 143.5625 140.054688 143.8125 140.304688 144 140.304688 Z M 132.078125 139.804688 C 130.707031 137.621094 128.332031 133.8125 128.332031 133.8125 C 128.769531 135.683594 130.144531 138.367188 131.328125 140.304688 C 132.578125 142.300781 135.699219 147.609375 135.699219 147.609375 C 135.136719 146.109375 133.390625 141.800781 132.078125 139.804688 Z M 121.03125 141.738281 L 120.40625 142.425781 C 122.214844 144.113281 125.210938 149.480469 125.273438 149.480469 C 125.210938 149.480469 122.902344 143.488281 121.03125 141.738281 Z M 140.628906 144.425781 C 139.628906 144.796875 138.382812 146.859375 138.382812 146.859375 C 139.257812 146.109375 140.378906 145.421875 141.378906 145.109375 L 141.816406 144.984375 L 141.628906 144.550781 C 141.191406 143.363281 140.191406 141.117188 138.570312 139.429688 L 138.445312 139.304688 L 138.257812 139.304688 C 136.636719 139.179688 134.949219 140.304688 134.511719 141.925781 C 134.511719 141.925781 136.820312 140.242188 138.007812 140.242188 C 139.070312 141.304688 140.003906 142.800781 140.628906 144.425781 Z M 143.125 134.25 C 143.375 133.9375 143.8125 133.6875 144.1875 133.4375 C 144.3125 133.5625 144.4375 133.6875 144.5625 133.8125 C 144.75 134.0625 145 134.25 145.125 134.4375 C 145.621094 135.121094 146.183594 135.808594 146.496094 136.558594 C 146.496094 136.621094 146.496094 136.621094 146.496094 136.621094 C 146.433594 136.683594 146.371094 136.683594 146.371094 136.746094 C 145.746094 137.246094 145.558594 139.367188 145.558594 139.367188 C 145.746094 138.492188 146.433594 137.871094 146.933594 137.496094 C 147.121094 137.371094 147.371094 137.183594 147.433594 136.808594 C 147.496094 136.558594 147.371094 136.371094 147.371094 136.246094 C 147.058594 135.308594 146.433594 134.558594 145.871094 133.8125 C 145.683594 133.625 145.496094 133.375 145.25 133.125 C 145.0625 132.875 144.8125 132.6875 144.6875 132.5 L 144.4375 132.1875 L 144.0625 132.375 C 143.5 132.6875 142.875 133 142.378906 133.5625 C 141.816406 134.25 141.628906 135.121094 141.941406 135.808594 C 141.941406 135.933594 142.8125 134.621094 143.125 134.25 Z M 126.273438 145.296875 L 127.148438 145.609375 C 127.460938 144.675781 129.707031 143.300781 129.707031 143.300781 C 128.269531 142.988281 126.710938 143.925781 126.273438 145.296875 Z M 117.285156 216.21875 C 118.910156 216.21875 120.53125 215.46875 121.59375 214.28125 L 120.90625 213.65625 C 119.96875 214.78125 116.910156 216.21875 116.910156 216.21875 C 117.035156 216.21875 117.160156 216.21875 117.285156 216.21875 Z M 175.019531 221.398438 C 174.832031 222.023438 174.335938 222.710938 173.585938 222.835938 L 173.710938 223.769531 C 174.832031 223.644531 175.644531 222.648438 175.894531 221.648438 C 176.144531 220.710938 176.082031 219.714844 175.957031 218.839844 C 175.957031 218.839844 175.207031 220.648438 175.019531 221.398438 Z M 209.160156 144.738281 C 208.101562 141.550781 206.726562 138.492188 205.042969 135.621094 C 205.042969 135.621094 207.226562 141.925781 208.289062 145.046875 Z M 185.257812 140.117188 L 185.257812 139.179688 C 182.636719 139.179688 177.703125 141.117188 177.703125 141.117188 C 180.199219 140.429688 182.699219 140.054688 185.257812 140.117188 Z M 199.800781 139.179688 C 198.363281 136.246094 196.929688 133.1875 195.617188 130.191406 C 195.617188 130.191406 197.492188 136.621094 198.925781 139.617188 Z M 210.472656 146.109375 C 211.222656 142.988281 211.785156 139.804688 211.222656 136.683594 C 211.222656 136.683594 210.097656 143.800781 209.222656 147.421875 C 208.851562 148.855469 208.539062 150.355469 208.289062 151.789062 C 208.164062 152.289062 208.101562 152.851562 208.039062 153.351562 C 207.601562 156.722656 207.789062 160.21875 207.976562 163.527344 L 209.039062 183.691406 L 209.972656 183.628906 L 208.914062 163.464844 C 208.726562 159.90625 208.539062 156.222656 209.039062 152.664062 C 209.101562 152.414062 209.160156 152.101562 209.160156 151.851562 C 210.535156 146.859375 215.902344 140.054688 215.902344 140.054688 C 213.71875 141.738281 211.847656 143.800781 210.472656 146.109375 Z M 93.132812 217.589844 C 93.878906 218.214844 94.941406 218.589844 96.25 218.714844 C 96.625 218.777344 96.9375 218.777344 97.25 218.777344 C 102.742188 218.777344 107.175781 214.46875 109.359375 211.785156 C 109.359375 211.785156 101.871094 218.339844 96.3125 217.777344 C 95.191406 217.652344 94.316406 217.339844 93.691406 216.839844 C 92.695312 216.03125 92.132812 214.59375 92.132812 212.972656 C 92.132812 211.722656 92.507812 210.410156 92.820312 209.226562 C 92.882812 208.976562 92.945312 208.664062 93.007812 208.414062 C 94.253906 203.292969 94.566406 197.863281 93.753906 192.679688 C 93.753906 192.679688 93.316406 203.230469 92.070312 208.164062 C 92.007812 208.414062 91.945312 208.664062 91.882812 208.976562 C 91.570312 210.285156 91.195312 211.597656 91.195312 212.972656 C 91.195312 214.90625 91.882812 216.589844 93.132812 217.589844 Z M 97.9375 198.363281 C 98.75 201.421875 99.621094 204.605469 99.683594 207.789062 C 99.746094 209.910156 99.808594 215.21875 99.808594 215.21875 C 100.433594 212.222656 100.683594 209.972656 100.621094 207.789062 C 100.558594 204.480469 99.683594 201.296875 98.8125 198.175781 C 98.375 196.550781 97.9375 194.929688 97.625 193.304688 C 96.8125 189.246094 96.5 183.503906 99.871094 179.632812 C 100.933594 178.449219 102.179688 177.511719 103.554688 176.511719 C 104.179688 176.074219 104.863281 175.574219 105.488281 175.078125 C 105.550781 175.203125 105.550781 175.328125 105.613281 175.453125 C 105.863281 176.136719 106.050781 176.824219 106.175781 177.449219 C 106.363281 178.824219 106.175781 180.257812 105.925781 181.695312 C 105.863281 182.007812 105.800781 182.378906 105.800781 182.691406 C 105.675781 183.691406 106.300781 185.8125 106.738281 187.1875 C 106.425781 185.628906 106.613281 183.753906 106.738281 182.816406 C 106.800781 182.503906 106.863281 182.132812 106.863281 181.820312 C 107.113281 180.320312 107.363281 178.824219 107.113281 177.324219 C 106.988281 176.574219 106.738281 175.824219 106.550781 175.140625 C 106.238281 174.203125 104.988281 172.390625 104.988281 172.390625 C 104.988281 172.953125 105.113281 173.515625 105.238281 174.078125 C 104.554688 174.640625 103.742188 175.203125 103.054688 175.761719 C 101.683594 176.699219 100.308594 177.699219 99.183594 179.007812 C 95.628906 183.191406 95.878906 189.183594 96.75 193.429688 C 97.0625 195.117188 97.5 196.800781 97.9375 198.363281 Z M 105.175781 168.023438 C 104.742188 165.898438 104.242188 161.09375 104.179688 161.46875 C 103.804688 163.714844 103.804688 166.023438 104.242188 168.210938 Z M 106.738281 187.1875 C 106.863281 187.6875 106.988281 188.125 107.175781 188.5 C 107.175781 188.5 106.988281 187.9375 106.738281 187.1875 Z M 144.9375 193.554688 C 143.25 191.871094 135.824219 192.058594 132.953125 195.492188 C 132.828125 195.679688 132.703125 195.867188 132.578125 196.050781 C 132.578125 195.988281 132.515625 195.867188 132.515625 195.742188 C 132.140625 191.496094 132.078125 187.1875 132.390625 183.003906 C 132.390625 183.003906 131.203125 191.558594 131.578125 195.867188 C 131.640625 196.550781 131.890625 196.988281 132.265625 197.175781 C 132.078125 200.171875 137.195312 203.292969 140.066406 202.980469 L 139.628906 203.105469 C 141.128906 210.347656 140.378906 211.722656 140.316406 211.785156 L 140.691406 212.035156 L 141.066406 212.347656 C 141.253906 212.097656 142.191406 210.535156 140.566406 202.917969 C 144.375 201.984375 146.558594 195.242188 144.9375 193.554688 Z M 123.777344 181.132812 C 123.839844 177.636719 120.03125 176.199219 118.722656 179.882812 C 118.472656 180.570312 118.285156 181.320312 118.410156 182.007812 C 118.660156 183.316406 120.09375 184.191406 121.40625 183.941406 C 122.714844 183.691406 123.714844 182.441406 123.777344 181.132812 Z M 151.488281 181.007812 C 154.421875 180.882812 154.296875 176.011719 152.175781 174.890625 C 149.617188 173.453125 148.617188 177.199219 149.117188 179.070312 C 149.429688 180.070312 150.367188 181.070312 151.488281 181.007812 Z M 143.125 147.109375 C 143.125 147.109375 146.183594 147.484375 147.683594 147.546875 C 148.867188 147.609375 150.117188 147.609375 151.300781 147.359375 C 151.613281 147.296875 151.988281 147.171875 152.300781 146.921875 C 152.675781 146.609375 152.863281 146.234375 152.988281 145.859375 L 153.613281 144.363281 L 152.113281 145.484375 C 151.988281 145.734375 151.863281 146.046875 151.675781 146.171875 C 151.550781 146.296875 151.300781 146.359375 151.117188 146.421875 C 150.054688 146.671875 148.867188 146.609375 147.746094 146.609375 C 146.183594 146.609375 144.625 146.546875 143.125 147.109375 Z M 149.867188 141.550781 L 148.929688 141.738281 C 149.179688 142.925781 149.242188 145.609375 149.242188 145.609375 C 149.929688 144.363281 150.117188 142.925781 149.867188 141.550781 Z M 156.046875 156.597656 C 156.046875 156.597656 158.605469 160.84375 158.855469 163.089844 L 159.792969 162.964844 C 159.542969 160.53125 158.105469 158.097656 156.046875 156.597656 Z M 121.40625 264.785156 C 120.53125 263.539062 119.285156 262.414062 117.722656 261.226562 C 109.546875 255.046875 103.992188 257.730469 103.992188 257.730469 C 108.671875 257.792969 113.355469 259.292969 117.160156 261.976562 C 119.34375 263.476562 120.71875 265.097656 121.46875 266.847656 L 121.59375 266.785156 C 122.652344 277.648438 124.152344 294.316406 124.152344 299.121094 C 124.152344 299.683594 124.152344 300.246094 124.089844 300.746094 L 123.839844 300.558594 C 120.34375 304.367188 114.539062 304.742188 108.921875 304.804688 L 91.007812 304.992188 C 86.328125 305.054688 81.085938 305.054688 76.589844 307.425781 C 76.589844 307.425781 86.453125 305.988281 91.007812 305.925781 L 108.921875 305.738281 C 110.546875 305.738281 112.230469 305.675781 113.789062 305.550781 C 113.851562 305.925781 114.101562 306.300781 114.851562 306.675781 C 115.351562 306.925781 115.914062 307.175781 116.472656 307.363281 C 117.285156 307.738281 118.097656 308.050781 118.910156 308.488281 C 120.34375 309.296875 122.652344 311.046875 122.652344 311.046875 C 122.09375 309.734375 121.03125 308.609375 119.40625 307.675781 C 118.597656 307.238281 117.722656 306.863281 116.910156 306.488281 C 116.410156 306.238281 115.851562 306.050781 115.351562 305.800781 C 115.101562 305.675781 114.914062 305.550781 114.851562 305.425781 C 118.347656 304.992188 121.59375 304.054688 124.089844 301.683594 C 123.902344 303.867188 123.527344 305.988281 123.152344 308.113281 C 122.527344 311.796875 121.96875 314.980469 122.652344 317.726562 C 122.652344 317.726562 123.464844 311.859375 124.089844 308.300781 C 124.589844 305.488281 125.148438 302.367188 125.148438 299.121094 C 125.148438 291.566406 124.089844 267.59375 120.71875 257.171875 C 120.65625 257.109375 120.96875 260.230469 121.40625 264.785156 Z M 143.625 309.796875 C 142.253906 308.984375 141.566406 308.546875 141.691406 307.175781 C 141.753906 306.613281 141.753906 305.925781 141.753906 305.117188 C 141.816406 301.683594 142.003906 295.9375 144.3125 286.011719 C 145.933594 279.207031 145.621094 269.96875 145.433594 261.726562 C 145.25 255.296875 145.0625 247.121094 145.0625 247.121094 C 144.125 249.554688 144.3125 255.234375 144.5 261.726562 C 144.75 269.90625 145 279.082031 143.4375 285.761719 C 141.066406 295.75 140.941406 301.558594 140.816406 305.054688 C 140.816406 305.800781 140.753906 306.488281 140.753906 307.050781 C 140.628906 309.046875 141.878906 309.734375 143.1875 310.546875 C 144.25 311.171875 145.433594 311.859375 146.246094 313.417969 C 147.621094 316.039062 148.183594 318.972656 147.621094 320.722656 C 147.371094 321.410156 146.871094 323.03125 146.871094 323.03125 C 147.683594 322.65625 148.246094 321.972656 148.554688 320.972656 C 149.179688 318.972656 148.617188 315.789062 147.121094 312.917969 C 146.121094 311.234375 144.75 310.421875 143.625 309.796875 Z M 154.796875 321.160156 L 155.609375 321.597656 C 156.421875 319.910156 156.671875 317.976562 156.234375 316.164062 C 156.234375 316.164062 155.546875 319.722656 154.796875 321.160156 Z M 149.992188 322.71875 L 150.867188 323.03125 C 151.425781 321.285156 151.550781 319.472656 151.117188 317.664062 C 151.117188 317.664062 150.492188 321.160156 149.992188 322.71875 Z M 140.753906 321.597656 L 141.566406 322.035156 C 143.0625 317.601562 140.253906 314.667969 140.253906 314.667969 C 141.628906 316.664062 141.816406 319.410156 140.753906 321.597656 Z M 133.824219 320.847656 L 134.699219 321.222656 C 135.324219 319.785156 135.511719 318.226562 135.324219 316.664062 C 135.261719 316.726562 134.324219 319.597656 133.824219 320.847656 Z M 100.433594 309.421875 C 97.3125 307.925781 93.628906 307.300781 89.074219 307.425781 C 86.578125 307.488281 84.144531 307.800781 81.707031 308.113281 C 80.398438 308.300781 79.023438 308.425781 77.652344 308.546875 C 69.789062 309.296875 57.304688 308.734375 50 306.488281 C 47.941406 305.863281 45.507812 304.867188 44.507812 302.804688 C 43.886719 301.433594 43.261719 298.125 43.261719 298.125 C 43.011719 299.808594 42.886719 301.621094 43.636719 303.179688 C 44.757812 305.550781 47.441406 306.675781 49.691406 307.363281 C 57.367188 309.734375 69.851562 310.171875 77.652344 309.421875 C 79.023438 309.296875 80.398438 309.109375 81.707031 308.921875 C 84.082031 308.609375 86.578125 308.300781 88.949219 308.238281 C 93.378906 308.050781 97 308.550781 99.871094 310.109375 C 105.175781 313.042969 106.925781 322.65625 106.925781 322.65625 C 108.921875 316.789062 104.179688 311.234375 100.433594 309.421875 Z M 52.25 300.996094 L 51.8125 300.183594 C 50.3125 300.933594 48.253906 304.492188 48.441406 304.492188 C 48.503906 304.429688 50.875 301.621094 52.25 300.996094 Z M 145.933594 258.667969 L 146.308594 259.542969 C 150.117188 257.917969 152.925781 254.046875 153.300781 249.929688 C 153.300781 249.929688 149.429688 257.171875 145.933594 258.667969 Z M 283.1875 284.640625 C 270.390625 293.128906 255.847656 297.25 253.914062 297.75 C 253.289062 297.25 249.546875 294.816406 249.546875 294.816406 C 250.542969 296.375 253.414062 298.496094 253.539062 298.621094 L 253.726562 298.746094 L 253.976562 298.683594 C 254.164062 298.621094 269.894531 294.566406 283.75 285.386719 C 294.984375 277.957031 303.035156 271.589844 307.40625 268.21875 C 308.464844 267.347656 309.402344 266.660156 310.027344 266.160156 C 310.027344 266.160156 307.902344 266.597656 306.78125 267.472656 C 302.410156 270.90625 294.359375 277.210938 283.1875 284.640625 Z M 271.953125 295.625 C 272.703125 295.625 273.386719 295.6875 274.136719 295.6875 C 276.507812 295.6875 278.941406 295.5 281.316406 295.1875 C 281.316406 295.1875 275.074219 294.816406 272.015625 294.691406 Z M 228.824219 250.117188 C 230.007812 249.179688 237.9375 243.4375 249.109375 241 C 261.15625 238.378906 272.140625 241.1875 272.140625 241.1875 C 272.078125 241.1875 265.898438 239.066406 257.597656 239.128906 C 263.652344 234.632812 271.265625 232.761719 278.691406 231.386719 C 279.816406 231.199219 281.003906 230.949219 282.125 230.761719 C 288.867188 229.578125 295.859375 228.390625 302.097656 225.332031 C 302.097656 225.332031 288.617188 228.703125 281.9375 229.890625 C 280.753906 230.074219 279.628906 230.261719 278.507812 230.511719 C 270.578125 231.949219 262.339844 234.007812 256.035156 239.191406 C 253.789062 239.316406 251.355469 239.566406 248.921875 240.066406 C 236.625 242.6875 228.136719 249.367188 228.074219 249.492188 L 227.886719 249.617188 L 227.886719 249.804688 C 227.886719 249.992188 228.449219 253.613281 228.761719 255.734375 C 228.574219 253.738281 228.761719 250.925781 228.824219 250.117188 Z M 228.761719 255.734375 C 228.824219 256.296875 228.886719 256.859375 229.011719 257.234375 C 229.011719 257.234375 228.886719 256.609375 228.761719 255.734375 Z M 338.238281 215.96875 C 334.179688 214.78125 329.5 214.65625 324.382812 215.65625 C 319.824219 216.527344 311.460938 220.523438 311.460938 220.523438 C 315.707031 218.964844 320.074219 217.402344 324.570312 216.527344 C 329.5625 215.59375 338.238281 215.96875 338.238281 215.96875 Z M 324.132812 176.886719 C 325.691406 181.882812 327.878906 186.75 330 191.496094 C 332.433594 196.925781 334.992188 202.609375 336.492188 208.414062 C 336.492188 208.414062 333.308594 196.550781 330.8125 191.058594 C 328.6875 186.375 326.503906 181.570312 325.007812 176.574219 C 324.320312 174.390625 323.757812 172.078125 323.195312 169.894531 C 321.761719 164.214844 320.261719 158.285156 316.890625 153.414062 C 316.890625 153.414062 320.886719 164.527344 322.257812 170.144531 C 322.882812 172.390625 323.445312 174.640625 324.132812 176.886719 Z M 276.445312 236.257812 L 276.382812 236.195312 C 275.574219 235.882812 274.699219 235.445312 273.761719 235.757812 L 274.011719 236.632812 C 274.636719 236.445312 275.324219 236.757812 276.007812 237.066406 L 276.070312 237.128906 C 278.007812 237.941406 280.066406 238.503906 282.0625 239.066406 C 283 239.316406 283.9375 239.566406 284.808594 239.878906 C 287.246094 240.625 293.234375 243.375 293.234375 243.375 C 290.863281 240.9375 287.617188 239.753906 285.058594 239.003906 C 284.125 238.691406 283.1875 238.441406 282.25 238.191406 C 280.378906 237.628906 278.320312 237.066406 276.445312 236.257812 Z M 337.800781 224.582031 C 332.308594 229.578125 317.953125 235.132812 317.953125 235.132812 C 325.503906 233.945312 332.746094 230.449219 338.425781 225.269531 Z M 318.703125 253.738281 C 326.066406 247.429688 330.125 238.128906 330.125 238.128906 C 326.441406 243.375 322.382812 248.429688 318.015625 253.113281 Z M 251.105469 234.257812 C 249.855469 236.007812 248.671875 237.691406 246.921875 238.816406 L 247.421875 239.628906 C 249.296875 238.378906 250.605469 236.570312 251.855469 234.820312 C 252.914062 233.324219 254.851562 230.574219 255.414062 229.703125 C 262.464844 228.015625 269.457031 226.019531 275.945312 222.710938 C 277.320312 222.023438 278.691406 221.273438 280.003906 220.523438 C 284.746094 217.902344 294.921875 214.15625 294.921875 214.15625 C 289.367188 214.21875 284.375 217.027344 279.566406 219.714844 C 278.257812 220.460938 276.882812 221.210938 275.511719 221.898438 C 266.898438 226.269531 248.234375 231.386719 248.234375 231.386719 C 250.480469 230.886719 252.789062 230.386719 255.101562 229.828125 C 253.476562 230.949219 252.292969 232.636719 251.105469 234.257812 Z M 211.035156 226.144531 L 211.910156 225.769531 C 209.660156 220.710938 207.664062 209.597656 207.664062 209.597656 C 207.601562 215.28125 208.726562 220.960938 211.035156 226.144531 Z M 203.855469 178.199219 C 198.425781 180.007812 192.746094 180.945312 187.066406 180.945312 C 187.066406 180.945312 198.675781 180.945312 204.167969 179.070312 C 204.855469 178.824219 205.292969 178.824219 205.417969 179.007812 L 206.105469 178.386719 C 205.480469 177.636719 204.292969 178.074219 203.855469 178.199219 Z M 274.136719 164.402344 C 278.195312 161.71875 282.0625 155.847656 282.1875 155.597656 C 282.1875 155.597656 277.507812 161.03125 273.574219 163.589844 C 269.457031 166.335938 255.535156 175.390625 248.921875 177.324219 L 249.171875 178.199219 C 255.972656 176.261719 270.015625 167.148438 274.136719 164.402344 Z M 285.433594 147.671875 C 286.246094 148.109375 287.367188 148.480469 288.617188 148.480469 C 289.617188 148.480469 290.738281 148.230469 291.863281 147.671875 C 295.546875 145.734375 300.539062 140.242188 301.851562 137.308594 L 300.976562 136.933594 C 299.726562 139.742188 294.859375 145.046875 291.425781 146.859375 C 289.304688 147.984375 287.183594 147.609375 285.871094 146.859375 C 285.058594 146.421875 283.625 145.421875 283.625 145.421875 C 283.6875 146.234375 284.375 147.046875 285.433594 147.671875 Z M 293.113281 140.242188 C 294.671875 139.054688 296.046875 137.621094 297.292969 136.246094 L 296.605469 135.621094 C 295.359375 136.996094 294.046875 138.429688 292.550781 139.492188 C 290.925781 140.679688 289.179688 141.363281 287.554688 141.425781 C 287.554688 141.425781 291.300781 141.550781 293.113281 140.242188 Z M 223.519531 270.28125 L 224.453125 270.28125 C 224.453125 270.15625 224.453125 267.160156 221.769531 261.414062 C 221.769531 261.351562 223.519531 270.21875 223.519531 270.28125 Z M 117.285156 170.457031 C 116.101562 170.957031 115.039062 171.769531 113.976562 172.515625 C 112.667969 173.515625 110.171875 175.636719 110.171875 175.636719 C 111.855469 175.265625 113.230469 174.265625 114.539062 173.265625 C 115.539062 172.515625 116.535156 171.769531 117.597656 171.332031 C 119.160156 170.707031 120.90625 170.644531 122.464844 170.644531 C 124.714844 170.644531 129.457031 170.082031 129.457031 170.082031 C 127.148438 169.832031 124.839844 169.707031 122.464844 169.707031 C 120.90625 169.707031 119.035156 169.769531 117.285156 170.457031 Z M 151.613281 192.058594 C 152.675781 194.054688 156.921875 201.234375 156.921875 201.234375 C 156.234375 198.988281 155.296875 196.863281 154.234375 194.804688 Z M 140.941406 172.953125 C 140.628906 176.199219 144.0625 181.507812 144.0625 181.507812 C 142.875 178.945312 141.566406 176.011719 141.878906 173.015625 Z M 119.84375 198.050781 C 119.84375 198.050781 121.09375 196.363281 121.40625 195.429688 C 121.84375 194.179688 122.277344 192.867188 121.96875 191.558594 L 121.03125 191.808594 C 121.28125 192.867188 120.90625 193.992188 120.53125 195.179688 C 120.21875 196.113281 119.90625 197.050781 119.84375 198.050781 Z M 116.597656 195.117188 C 116.597656 195.117188 114.476562 194.367188 113.664062 193.992188 L 113.539062 194.304688 C 113.480469 193.867188 113.480469 193.554688 113.417969 193.304688 C 113.417969 193.304688 113.417969 193.804688 113.417969 194.554688 L 113.292969 194.867188 C 113.355469 194.867188 113.355469 194.929688 113.417969 194.929688 C 113.417969 197.488281 113.355469 202.546875 113.480469 205.980469 C 113.539062 209.847656 114.601562 212.285156 114.601562 212.285156 C 114.539062 211.972656 114.476562 208.914062 114.414062 205.980469 C 114.351562 202.234375 113.914062 197.613281 113.664062 194.992188 C 114.226562 195.179688 114.789062 195.304688 115.351562 195.304688 C 115.789062 195.242188 116.164062 195.242188 116.597656 195.117188 Z M 111.730469 190.183594 L 111.042969 189.558594 C 110.109375 190.621094 107.488281 192.433594 107.488281 192.433594 C 109.109375 192.246094 110.667969 191.433594 111.730469 190.183594 Z M 112.667969 322.59375 C 113.539062 322.160156 113.789062 321.160156 113.914062 320.285156 C 114.164062 318.539062 114.289062 316.726562 114.226562 314.980469 C 114.226562 314.980469 113.230469 318.476562 112.980469 320.160156 C 112.917969 320.785156 112.667969 322.59375 112.667969 322.59375 Z M 116.722656 310.421875 C 118.785156 312.542969 119.46875 318.847656 119.46875 318.847656 C 121.09375 312.980469 116.722656 310.421875 116.722656 310.421875 Z M 148.617188 167.023438 C 147.621094 167.210938 146.621094 167.585938 145.683594 167.898438 C 144.1875 168.460938 141.128906 169.769531 141.128906 169.769531 C 142.8125 169.894531 144.4375 169.332031 145.996094 168.769531 C 146.871094 168.460938 147.808594 168.085938 148.742188 167.898438 C 151.613281 167.335938 157.417969 169.832031 157.417969 169.832031 C 155.234375 167.523438 151.800781 166.398438 148.617188 167.023438 Z M 148.617188 167.023438 " fill-opacity="1" fill-rule="nonzero"/></svg>